<?xml version="1.0" encoding="UTF-8" standalone="no"?>
<!-- Created with Inkscape (http://www.inkscape.org/) -->

<svg
   width="500"
   height="500"
   viewBox="0 0 132.29167 132.29167"
   version="1.1"
   id="svg2341"
   xmlns="http://www.w3.org/2000/svg">
  <defs
     id="defs2338" />
  <g
     id="layer1">
    <path
       d="m 33.187776,54.762701 10.255207,4.338759 c 1.22703,-2.45425 2.498054,-4.820844 3.812825,-7.099764 1.314715,-2.278943 2.761032,-4.557883 4.338761,-6.836823 l -7.362731,-1.446327 z m 33.658137,25.7695 c 3.681356,-1.402378 7.625651,-3.549872 11.832925,-6.442369 4.207272,-2.8925 8.151568,-6.179429 11.832924,-9.860773 6.135607,-6.135609 10.934508,-12.950505 14.396728,-20.44468 3.46225,-7.494196 4.97423,-14.396744 4.53597,-20.707642 -6.3109,-0.438162 -13.235341,1.073647 -20.773385,4.535952 -7.538006,3.462238 -14.374822,8.261153 -20.51041,14.396744 -3.681357,3.681363 -6.968285,7.625667 -9.860768,11.832934 -2.892501,4.207265 -5.03997,8.151568 -6.442388,11.832932 L 66.845913,80.532201 M 77.758494,99.333419 88.802563,88.289358 87.356246,80.926632 c -2.27892,1.577732 -4.557858,3.002061 -6.836796,4.273013 -2.278959,1.270973 -4.645525,2.519974 -7.099775,3.747087 z M 63.164537,91.839231 40.681969,69.356662 14.781002,58.312594 36.737645,36.224437 c 1.227021,-1.227026 2.695288,-2.103568 4.404506,-2.629535 1.709142,-0.525839 3.44031,-0.613514 5.193332,-0.263029 l 13.016228,2.629559 c 9.115736,-9.115743 18.669721,-15.558136 28.661997,-19.327131 9.992256,-3.769017 20.291272,-4.820822 30.897092,-3.155438 1.66542,10.605797 0.63549,20.926747 -3.08971,30.962824 -3.72517,10.03608 -10.14565,19.612 -19.261386,28.727743 l 2.629544,13.016231 c 0.350702,1.753082 0.26301,3.462217 -0.263032,5.127602 -0.525843,1.665406 -1.402383,3.111623 -2.629546,4.338736 L 74.208511,117.74013 63.16446,91.839166 M 24.115784,86.054169 c 3.067784,-3.067784 6.814893,-4.623606 11.241283,-4.667422 4.426395,-0.04351 8.173486,1.46808 11.241279,4.535952 3.067795,3.067805 4.579789,6.814893 4.535966,11.241282 -0.04351,4.426389 -1.599717,8.173499 -4.667435,11.241299 -2.191292,2.19127 -5.850737,4.07578 -10.978341,5.65351 -5.127599,1.57772 -12.205456,2.98012 -21.233545,4.20727 1.227026,-9.02809 2.629558,-16.10595 4.207265,-21.233549 1.577732,-5.127599 3.462238,-8.787055 5.653528,-10.978342 z m 7.494175,7.362726 c -0.876542,0.876542 -1.753084,2.476135 -2.629536,4.798919 -0.876541,2.322766 -1.490055,4.667416 -1.840759,7.034016 2.366574,-0.35071 4.711262,-0.94225 7.03402,-1.77506 2.322755,-0.83259 3.922394,-1.68739 4.798916,-2.56381 1.051888,-1.051891 1.621457,-2.322764 1.709142,-3.812828 0.08704,-1.490058 -0.394447,-2.76101 -1.446337,-3.812838 -1.051889,-1.051892 -2.322756,-1.555756 -3.812809,-1.512026 -1.490054,0.04351 -2.761027,0.591538 -3.812856,1.643431 z"
       id="path17"
       style="stroke-width:0.131477;fill:#000000"/>
    <path
       d="m 61.272514,71.356185 q -0.792351,-0.792346 -1.051243,-1.812911 -0.258891,-1.020783 0.01521,-2.026335 -1.005558,-1.005553 -1.005558,-2.437627 0,-1.432184 1.005558,-2.437607 l 4.32677,-4.326792 q -0.609381,-2.986093 0.258891,-6.017893 0.868502,-3.031777 3.153692,-5.31705 3.686906,-3.686912 8.836397,-3.686912 5.149451,0 8.836376,3.686912 3.686907,3.686889 3.686907,8.836376 0,5.149489 -3.686907,8.836377 -2.346213,2.346233 -5.34753,3.184156 -3.001318,0.838034 -5.987414,0.228438 l -4.326789,4.32679 q -1.005558,1.005554 -2.437642,1.005554 -1.432177,0 -2.437602,-1.005554 -1.005558,0.274342 -2.026338,0.01521 -1.02078,-0.259112 -1.812904,-1.05124 z m 1.401715,-6.276896 4.875244,4.875257 1.096929,-1.096927 -4.875244,-4.875257 z m 2.315731,-2.31573 4.875262,4.875234 1.157837,-1.157842 -4.875225,-4.875257 z m 3.351751,-3.839266 1.767218,1.767223 3.290805,-3.290804 v -5.36276 h 2.559495 v 4.631483 h 4.63148 v 2.559505 h -5.362771 l -3.290787,3.29078 1.767218,1.767223 q 2.43764,0.853045 5.012395,0.350486 2.574736,-0.502777 4.494347,-2.422376 2.681386,-2.681402 2.681386,-6.398771 0,-3.717369 -2.681386,-6.398772 -2.681366,-2.681379 -6.398736,-2.681379 -3.717407,0 -6.398774,2.681379 -1.919744,1.919732 -2.422399,4.494378 -0.502789,2.574733 0.35049,5.012361 z M 75.959286,56.6695 Z m 1.157837,-1.157842 z"
       id="path2228"
       style="fill:#000000;stroke-width:0.0430915" />
  </g>
</svg>
